<svg width="9" height="11" viewBox="0 0 9 11" fill="none" xmlns="http://www.w3.org/2000/svg">
<path d="M8.64751 4.6025L4.89751 0.852503C4.67776 0.632753 4.32151 0.632753 4.10251 0.852503L0.352509 4.6025C0.132009 4.82225 0.132009 5.1785 0.352509 5.3975C0.573009 5.6165 0.927759 5.618 1.14751 5.3975L3.93751 2.6075V10.25C3.93751 10.5605 4.18951 10.8125 4.50001 10.8125C4.81051 10.8125 5.06251 10.5605 5.06251 10.25V2.6075L7.85251 5.3975C7.96201 5.50775 8.10601 5.5625 8.25001 5.5625C8.39401 5.5625 8.53801 5.5085 8.64751 5.3975C8.86726 5.17775 8.86726 4.82225 8.64751 4.6025Z" fill="#828282"/>
</svg>
